<?xml version="1.0" encoding="UTF-8"?>
<svg width="17px" height="18px" viewBox="0 0 17 18" version="1.1" xmlns="http://www.w3.org/2000/svg" xmlns:xlink="http://www.w3.org/1999/xlink">
    <title>download</title>
    <g id="Page-1" stroke="none" stroke-width="1" fill="none" fill-rule="evenodd">
        <g id="Slide-5" transform="translate(-369.000000, -608.000000)" fill="#194A8A" fill-rule="nonzero">
            <g id="Group-5" transform="translate(90.000000, 359.000000)">
                <g id="download-copy" transform="translate(241.000000, 223.000000)">
                    <g id="Group-4" transform="translate(38.000000, 22.000000)">
                        <g id="download" transform="translate(0.000000, 4.000000)">
                            <path d="M12.9495092,8.5085 C12.8583835,8.29966667 12.658132,8.16666667 12.4376304,8.16666667 L10.187614,8.16666667 L10.187614,0.583333333 C10.187614,0.261333333 9.93561221,0 9.62510994,0 L7.37509356,0 C7.06459129,0 6.81258946,0.261333333 6.81258946,0.583333333 L6.81258946,8.16666667 L4.56257307,8.16666667 C4.34207146,8.16666667 4.14182,8.30083333 4.05069434,8.5085 C3.95844367,8.71733333 3.99444393,8.96116667 4.13956999,9.13383333 L8.07709867,13.8005 C8.18397445,13.9276667 8.33810057,14 8.50010175,14 C8.66210293,14 8.81622905,13.9265 8.92310483,13.8005 L12.8606335,9.13383333 C13.0068846,8.96233333 13.0406348,8.71733333 12.9495092,8.5085 Z" id="Path"></path>
                            <path d="M14.7333333,12 L14.7333333,15.6 L2.26666667,15.6 L2.26666667,12 L0,12 L0,16.8 C0,17.4636 0.507733333,18 1.13333333,18 L15.8666667,18 C16.4934,18 17,17.4636 17,16.8 L17,12 L14.7333333,12 Z" id="Path"></path>
                        </g>
                    </g>
                </g>
            </g>
        </g>
    </g>
</svg>